<?xml version="1.0" standalone="no"?>
<!DOCTYPE svg PUBLIC "-//W3C//DTD SVG 20010904//EN"
 "http://www.w3.org/TR/2001/REC-SVG-20010904/DTD/svg10.dtd">
<svg version="1.0" xmlns="http://www.w3.org/2000/svg"
 width="130.000000pt" height="100.000000pt" viewBox="0 0 130.000000 100.000000"
 preserveAspectRatio="xMidYMid meet">

<g transform="translate(0.000000,100.000000) scale(0.100000,-0.100000)"
fill="#000000" stroke="none">
<path d="M565 979 c-93 -14 -197 -69 -269 -142 -33 -34 -69 -81 -80 -104 -10
-23 -26 -44 -35 -46 -9 -3 18 -5 59 -6 41 -1 86 -4 100 -7 18 -4 21 -3 11 4
-24 17 91 124 164 152 186 71 397 -25 460 -208 l12 -35 18 47 c16 42 21 46 51
46 l34 0 -26 -57 c-14 -32 -28 -63 -31 -70 -3 -8 7 -10 36 -6 46 6 55 -11 22
-41 -27 -25 -17 -51 21 -51 17 0 33 -5 35 -12 7 -20 -64 -66 -105 -67 -33 -1
-37 1 -36 24 1 14 4 33 9 43 5 12 3 17 -10 17 -11 0 -15 -5 -11 -16 3 -8 2
-13 -3 -10 -4 3 -13 -6 -20 -20 -16 -35 -13 -44 4 -14 28 49 15 -6 -16 -68
-103 -207 -376 -261 -546 -107 -54 48 -110 139 -93 150 13 8 11 11 43 -45 102
-176 342 -220 491 -89 24 22 55 56 67 77 13 20 28 40 33 44 6 4 -7 8 -29 9
-22 0 -69 2 -105 2 l-65 2 0 30 c1 17 4 40 9 53 4 13 3 22 -3 22 -5 0 -13 -10
-16 -22 -4 -13 -18 -38 -32 -55 -22 -30 -29 -33 -79 -33 -30 0 -54 4 -54 10 0
7 -6 7 -19 0 -25 -13 -78 -13 -86 0 -3 5 4 32 16 60 12 28 19 53 16 56 -3 3
-28 -18 -56 -47 -28 -29 -53 -50 -56 -47 -5 5 48 134 59 146 5 4 116 -58 116
-64 0 -3 -7 -18 -15 -35 -9 -16 -13 -34 -10 -39 11 -18 34 3 60 56 27 55 33
60 107 83 45 14 58 9 58 -25 0 -29 7 -30 34 -5 19 17 62 26 109 22 28 -2 20
-28 -13 -40 -24 -8 -30 -7 -30 5 0 31 -22 11 -45 -42 -31 -69 -31 -74 -1 -74
55 0 83 20 107 73 45 104 50 119 42 114 -5 -3 -16 16 -26 41 -19 56 -75 124
-129 158 -54 34 -150 57 -207 49 -65 -9 -159 -57 -206 -104 l-39 -41 35 0 c19
0 43 -6 53 -13 18 -13 18 -15 1 -51 -10 -21 -33 -46 -55 -58 -36 -21 -36 -22
-18 -40 21 -21 18 -47 -11 -88 -27 -38 -72 -59 -139 -66 l-62 -7 41 -78 c96
-184 297 -289 497 -260 91 13 197 61 261 117 53 46 114 137 136 205 14 40 21
49 40 49 19 0 36 17 75 75 l51 75 -69 0 -69 0 -12 59 c-38 192 -209 352 -407
381 -38 5 -73 9 -79 9 -5 -1 -37 -5 -70 -10z m69 -41 c5 -10 7 -10 12 0 11 24
34 13 34 -18 0 -16 -4 -30 -10 -30 -5 0 -10 6 -10 13 0 8 -3 8 -8 2 -4 -6 -17
-12 -29 -12 -19 -2 -23 3 -23 28 0 30 23 41 34 17z m116 -34 c0 -13 -4 -24
-10 -24 -5 0 -10 5 -10 11 0 6 -9 8 -20 4 -24 -8 -25 3 -4 33 13 18 19 21 30
11 8 -6 14 -22 14 -35z m-163 1 c3 -24 2 -28 -8 -17 -15 14 -33 16 -24 2 3 -5
1 -10 -5 -10 -12 0 -30 41 -23 53 3 5 16 7 31 5 20 -2 26 -9 29 -33z m-73 8
c4 -9 1 -20 -6 -25 -9 -5 -7 -8 7 -8 17 0 17 -2 5 -10 -23 -15 -38 -12 -45 9
-4 12 -12 18 -20 14 -11 -4 -12 -10 -4 -25 14 -26 1 -38 -16 -14 -8 10 -18 15
-24 11 -23 -14 -10 14 14 29 14 9 25 14 25 11 0 -4 10 1 22 9 28 20 34 20 42
-1z m300 4 c16 -12 16 -15 1 -42 -15 -30 -15 -30 -21 -7 -5 17 -9 20 -15 11
-12 -20 -21 -5 -13 25 7 29 21 33 48 13z m46 -27 c0 -5 6 -10 14 -10 8 0 40
-23 70 -51 55 -50 71 -74 41 -63 -8 4 -22 1 -30 -6 -22 -19 -31 -3 -11 19 16
17 16 20 1 35 -20 19 -26 20 -20 4 3 -7 1 -20 -5 -28 -8 -12 -14 -10 -40 15
-16 16 -30 36 -30 44 0 14 -2 14 -10 1 -14 -23 -24 -3 -12 25 11 25 32 34 32
15z m-473 -34 c-4 -10 -1 -13 9 -9 7 3 14 0 14 -6 0 -6 -5 -11 -11 -11 -6 0
-9 -6 -6 -14 6 -16 -22 -46 -42 -46 -7 0 -11 -6 -8 -15 11 -28 -12 -25 -27 4
-13 25 -13 31 -1 41 10 8 19 8 34 1 30 -16 34 -13 17 11 -14 20 -14 24 1 40
19 22 27 23 20 4z m851 -338 c-5 -15 -128 -24 -128 -10 0 18 15 22 73 22 42 0
58 -3 55 -12z m-23 -38 c-3 -5 -33 -10 -65 -10 -32 0 -62 5 -65 10 -4 6 20 10
65 10 45 0 69 -4 65 -10z m-21 -35 c-4 -8 -12 -15 -19 -15 -7 0 -15 7 -19 15
-4 11 1 15 19 15 18 0 23 -4 19 -15z m-24 -35 c0 -5 -9 -10 -21 -10 -11 0 -17
5 -14 10 3 6 13 10 21 10 8 0 14 -4 14 -10z m-630 -80 c0 -5 -5 -10 -11 -10
-5 0 -7 5 -4 10 3 6 8 10 11 10 2 0 4 -4 4 -10z m-47 -27 c-5 -14 -4 -16 8 -7
8 6 49 12 91 13 76 1 78 1 74 -21 -3 -22 -7 -23 -115 -24 -102 -2 -134 5 -96
20 8 3 15 12 15 21 0 8 7 15 15 15 10 0 12 -6 8 -17z m328 3 c26 23 45 6 25
-22 -12 -16 -27 -19 -89 -20 -72 -1 -74 -1 -69 22 4 20 11 23 56 26 36 2 52
-1 54 -10 3 -10 8 -9 23 4z m53 -138 c-5 -8 -2 -9 9 -5 9 3 19 2 23 -4 7 -11
-13 -39 -28 -39 -7 0 -7 4 0 13 8 9 4 12 -14 13 -27 2 -28 0 -14 -27 8 -13 7
-19 0 -19 -6 0 -13 7 -16 15 -10 26 -27 17 -20 -11 6 -21 4 -25 -8 -21 -8 3
-17 1 -20 -6 -3 -9 -8 -8 -15 3 -16 23 -13 50 7 51 9 0 33 11 52 24 39 26 55
31 44 13z m-434 -28 c0 -32 -14 -40 -24 -15 -3 8 -9 15 -13 14 -22 -4 -25 3
-7 16 30 23 44 18 44 -15z m35 -17 c-6 -27 -6 -27 9 -9 18 23 35 13 20 -11
-23 -36 -60 -20 -50 21 9 35 28 34 21 -1z m85 -12 c-1 -8 -26 -41 -32 -41 -3
0 -5 13 -5 29 0 22 4 27 19 23 10 -2 18 -7 18 -11z m60 -17 c18 -21 -9 -49
-39 -39 -20 6 -28 34 -14 48 11 12 40 7 53 -9z m75 5 c6 -9 -26 -49 -40 -49
-7 0 -6 45 2 53 10 11 31 8 38 -4z m55 -8 c14 -28 13 -34 -7 -27 -9 4 -20 1
-24 -6 -12 -19 -21 -3 -13 26 7 31 29 34 44 7z"/>
<path d="M870 839 c0 -18 2 -19 15 -9 8 7 15 16 15 21 0 5 -7 9 -15 9 -9 0
-15 -9 -15 -21z"/>
<path d="M900 810 c0 -5 5 -10 11 -10 5 0 7 5 4 10 -3 6 -8 10 -11 10 -2 0 -4
-4 -4 -10z"/>
<path d="M600 279 c0 -5 5 -7 10 -4 6 3 10 8 10 11 0 2 -4 4 -10 4 -5 0 -10
-5 -10 -11z"/>
<path d="M710 280 c0 -5 5 -10 11 -10 5 0 7 5 4 10 -3 6 -8 10 -11 10 -2 0 -4
-4 -4 -10z"/>
<path d="M585 89 c-10 -15 3 -25 16 -12 7 7 7 13 1 17 -6 3 -14 1 -17 -5z"/>
<path d="M151 668 c-1 -10 5 -18 12 -18 11 0 12 -11 4 -55 l-10 -55 -64 0
c-35 0 -63 -2 -63 -5 0 -16 95 -145 108 -145 8 0 12 -6 8 -15 -3 -8 -1 -15 4
-15 6 0 10 4 10 9 0 5 3 16 6 24 4 11 -1 13 -20 10 -16 -3 -26 -1 -26 6 0 6
13 11 29 11 27 0 31 7 76 109 26 60 44 114 40 120 -3 6 -28 11 -55 11 -29 0
-50 5 -53 13 -3 7 -6 5 -6 -5z m57 -150 c-3 -9 -28 -13 -78 -13 -50 0 -75 4
-77 13 -4 9 16 12 77 12 61 0 81 -3 78 -12z m-13 -38 c-3 -5 -30 -10 -60 -10
-30 0 -57 5 -60 10 -4 6 18 10 60 10 42 0 64 -4 60 -10z m-17 -32 c-7 -20 -74
-22 -81 -4 -5 13 2 16 39 16 32 0 44 -4 42 -12z"/>
<path d="M323 604 c-14 -30 -23 -58 -20 -60 11 -11 68 28 83 57 18 37 12 59
-16 59 -16 0 -28 -14 -47 -56z"/>
<path d="M730 525 c0 -8 5 -15 10 -15 6 0 10 7 10 15 0 8 -4 15 -10 15 -5 0
-10 -7 -10 -15z"/>
<path d="M265 474 c-28 -64 -31 -84 -11 -84 21 0 76 68 76 93 0 23 -17 47 -32
47 -5 0 -19 -25 -33 -56z"/>
<path d="M660 468 c-12 -29 -24 -59 -27 -65 -3 -7 2 -13 10 -13 17 0 57 79 57
111 0 34 -17 20 -40 -33z"/>
<path d="M1030 510 c-13 -8 -13 -10 2 -10 9 0 20 5 23 10 8 13 -5 13 -25 0z"/>
<path d="M1124 439 c-3 -6 -17 -9 -30 -6 -16 3 -24 0 -24 -9 0 -20 24 -17 51
6 13 10 21 19 17 20 -4 0 -10 -5 -14 -11z"/>
</g>
</svg>
